<svg width="309" height="130" viewBox="0 0 309 130" fill="none" xmlns="http://www.w3.org/2000/svg">
<path d="M153.762 67.326V47.3814C153.762 45.261 152.903 44.31 150.991 44.31H149.618V70.4488H151.055C153.48 70.4488 153.762 68.6625 153.762 67.326Z" fill="#070707"/>
<path d="M136.89 37.2291H132.579C130.462 37.2291 127.665 37.1392 126.318 37.0621V39.7608L123.944 36.8565H122.892L120.159 36.7408C117.926 36.638 115.027 36.4966 112.319 36.3424L112.448 78.7505V79.0461L115.527 82.413C118.581 82.1431 121.583 81.9118 124.508 81.7191H125.086V79.1489L127.01 81.6291H127.511C131.206 81.4235 135.017 81.2436 138.866 81.1279H139.443V79.6372L138.006 77.9023L138.532 39.2467L136.89 37.2291ZM135.799 76.4887C132.386 76.6044 128.922 76.7586 125.535 76.9642C125.24 75.0751 124.56 70.8472 123.867 66.5421C122.956 60.8877 122.019 55.0405 121.917 54.308V53.8197H120.338V54.4108C120.698 59.5512 121.493 72.2993 121.506 76.7586V77.2084C118.94 77.3883 116.284 77.5939 113.667 77.8124C113.667 64.4217 113.667 51.031 113.667 37.6404C116.823 37.8074 120.082 37.9359 123.213 38.0259C124.342 43.1663 127.331 57.8292 127.575 59.3841L127.652 59.8596H129.179V59.2428C128.46 52.8944 127.639 42.6908 127.639 39.0411V38.1544C130.423 38.2315 133.22 38.2829 136.005 38.3343L135.799 76.4887Z" fill="#070707"/>
<path d="M97.7565 44.7983V44.2971H96.2297V44.8369C96.2297 45.775 96.0244 49.0134 95.8448 52.4318C95.6652 55.8501 95.4342 59.9496 95.3444 62.1214V62.7254L98.9755 62.5455V61.98C98.7188 58.5874 98.0003 47.2143 97.7565 44.7983Z" fill="#070707"/>
<path d="M266.12 6.06564L280.221 0H27.9964L43.56 6.06564H266.12Z" fill="#070707"/>
<path d="M266.864 35.5842L274.37 28.1821H267.827L267.762 28.6704C267.467 30.9836 267.159 33.2582 266.864 35.52V35.5842Z" fill="#070707"/>
<path d="M281.042 0.861012L266.543 7.09371L245.848 28.1821L248.478 27.6038H248.593L249.761 27.3468H249.966L250.467 27.2311L251.018 27.1026L252.199 26.8199L252.712 27.2311V26.6528L256.908 25.6505L278.168 3.80388L281.042 0.861012Z" fill="#070707"/>
<path d="M57.4171 31.4205V29.1331L58.7001 29.3644L60.3296 29.6599H60.6889L62.1516 29.9041H62.3312L66.1034 30.5081L43.1366 7.09371L27.5987 1.02807L30.2674 3.76532L57.4171 31.4205Z" fill="#070707"/>
<path d="M16.1153 28.2078H34.2578L34.3989 28.0279L24.5835 17.6315H38.6972L36.516 15.4083H0L3.84919 19.2635L30.7935 45.8393V42.2024C30.7935 41.5342 30.7935 40.9174 30.7935 40.262C30.7935 39.6066 30.7935 39.2596 30.8833 38.7713H26.7775L16.1153 28.2078Z" fill="#070707"/>
<path d="M75.5467 87.9389C78.6902 87.3477 81.9621 86.7695 85.2467 86.2169H85.4135L83.0655 82.8114L84.772 64.8201C84.5683 64.2255 84.2971 63.6563 83.9636 63.1238L83.7198 62.7511L84.0406 62.4427C84.4675 61.9909 84.8459 61.4956 85.1697 60.9648C85.6444 55.9144 86.1448 50.6841 86.5811 46.0834C86.278 43.9702 85.4386 41.9703 84.1433 40.2748L81.6798 37.0492C79.845 34.7618 77.0479 33.3739 73.1089 32.7827C68.9005 32.1916 62.575 31.2406 58.5462 30.521V87.6305L61.4972 90.8432L62.1901 90.689C64.9743 90.0593 68.0793 89.4039 71.9285 88.6329H72.0953L72.5444 88.5429V84.572L75.1105 88.0032L75.5467 87.9389ZM72.9806 68.1099C72.9806 65 72.8523 63.4964 72.0953 62.7768C71.8003 62.5578 71.4638 62.4016 71.1064 62.3176C70.7489 62.2337 70.3781 62.2237 70.0167 62.2884H68.9646V84.135C66.0521 84.7133 62.8188 85.4201 59.8805 86.0498L59.6752 31.7546C63.5244 32.4486 68.6567 33.1939 72.5829 33.7337C79.8065 34.7746 82.1802 38.8741 82.1802 46.9316V48.6408C82.1802 53.2671 80.9869 56.1586 78.4208 57.7778L77.5868 58.2918L78.4593 58.7416C81.2179 60.1295 82.0134 62.4941 82.0262 69.2665V72.582C82.0262 76.5401 82.0262 80.0099 82.1288 81.7576C79.1906 82.2459 76.2524 82.7728 73.3912 83.2997C72.9934 81.7833 72.9293 76.6558 72.9293 68.1099H72.9806Z" fill="#070707"/>
<path d="M70.1322 41.7013L68.9518 41.5599V54.2566H70.2349C72.647 54.2566 73.1217 52.6503 73.1217 49.8616V45.865C73.1474 42.845 72.4417 41.894 70.1322 41.7013Z" fill="#070707"/>
<path d="M57.417 88.0546V55.4132L55.454 53.0101L57.417 53.1257V40.4933C56.8037 38.372 55.7694 36.3964 54.3762 34.6847L52.4131 32.1145C50.3439 29.2857 47.3378 27.2861 43.9321 26.4729C42.9424 26.1923 41.9197 26.0453 40.8912 26.036C39.9367 26.0213 38.9893 26.2017 38.1068 26.5663C37.2244 26.9309 36.4255 27.4719 35.759 28.1564C33.2698 30.7266 31.9098 35.5328 31.9098 42.1896V75.6791C31.8483 79.0149 32.0975 82.3491 32.6539 85.6386C32.9511 87.7217 33.7479 89.7016 34.9763 91.4087L37.4654 94.6471C37.6011 94.8183 37.7468 94.9814 37.9017 95.1354C38.3585 95.6117 38.909 95.988 39.5183 96.2406C40.1245 96.491 40.7744 96.6177 41.4301 96.6133C41.5495 96.626 41.6699 96.626 41.7893 96.6133H41.9048C42.4528 96.574 42.9949 96.4749 43.5215 96.3177C45.6618 95.7631 47.5492 94.4938 48.8719 92.7194L49.3081 92.1412L50.3987 93.5548L51.0146 93.3877C53.4267 92.7837 55.8004 92.2054 58.0842 91.6785L58.559 91.5757V89.2882L57.417 88.0546ZM54.8509 87.1807C52.8109 87.669 50.7708 88.1574 48.7307 88.6714C48.5767 87.3863 48.4869 86.1012 48.4484 84.7262L48.333 81.3207L47.3578 84.5848C46.2031 88.4401 44.0219 90.8047 40.6731 91.7428C40.002 92.01 39.2759 92.1087 38.558 92.0303C37.8401 91.9519 37.1523 91.6988 36.5545 91.293C34.1423 89.4939 32.9747 84.3792 32.9747 75.6534V42.1639C32.9747 35.2758 34.3989 30.5981 37.0805 28.5162C38.1653 27.6979 39.4951 27.272 40.8527 27.3082C41.7906 27.3217 42.7226 27.46 43.6241 27.7195C52.9007 30.1226 54.8509 38.6941 54.8509 45.4666V48.5765C51.8871 48.4094 48.8847 48.2167 45.8695 47.9854V43.7703C45.8695 41.0459 45.8695 38.6299 43.9192 38.36C43.71 38.3187 43.4941 38.3249 43.2876 38.3783C43.081 38.4317 42.8891 38.5308 42.726 38.6684C42.046 39.2596 41.815 40.5061 41.815 43.6032V76.2574C41.815 78.3521 42.0973 79.5215 42.7388 80.1127C42.9023 80.2488 43.0957 80.3442 43.3031 80.3911C43.5105 80.438 43.726 80.4351 43.9321 80.3826C45.3563 80.1384 45.9593 78.5706 45.9593 75.1394V65.4755L44.3298 65.5783V54.4879C47.8069 54.6036 51.3482 54.6936 54.8509 54.7578C54.8595 65.5697 54.8595 76.3773 54.8509 87.1807ZM48.0892 53.4599H45.4589V50.0672L48.0892 53.4599Z" fill="#070707"/>
<path d="M111.319 67.93C110.331 58.9344 109.394 49.9387 108.483 41.2515L108.329 39.8122L105.763 36.124C100.053 35.7641 94.3693 35.3272 89.3268 34.8389H88.7751L88.6981 35.5714C88.1592 41.0587 87.043 52.8173 86.055 63.2009L84.2331 82.5287L86.6709 86.0755L87.4151 85.9599C90.9435 85.3944 94.3821 84.9061 97.6796 84.482L98.1671 84.4177L98.4109 79.9199L101.336 83.968L105.519 83.4925C107.829 83.2355 110.562 82.927 112.281 82.7728H112.897L112.691 80.9094L111.408 79.4444V79.0075L111.319 67.93ZM99.8351 79.1874L99.2834 70.089L94.9723 70.4745V70.95C94.8055 73.9314 94.6515 76.9 94.4976 79.8814C91.9314 80.2283 89.0959 80.6267 85.6573 81.1665C85.6573 80.5368 85.6573 79.8814 85.6573 79.1874C87.0173 64.5888 88.403 50.0801 89.7631 36.0083C94.7413 36.4581 99.7838 36.8565 104.775 37.1649C106.212 51.0696 107.687 64.8715 109.15 78.1979C106.045 78.4806 102.94 78.8276 99.8351 79.1874Z" fill="#070707"/>
<path d="M272.369 15.4083L270.2 17.6315H284.314L274.332 28.2078H292.872L282.235 38.7713H266.454C266.223 40.4547 266.005 42.1253 265.786 43.7703V44.0658C265.556 45.8393 265.312 47.5998 265.081 49.3347H271.663L264.003 56.981C263.862 58.0476 263.708 59.1143 263.567 60.168V60.5793L305.151 19.2635L309 15.4725H272.369V15.4083Z" fill="#070707"/>
<path d="M188.803 45.9035C188.659 45.406 188.41 44.9456 188.071 44.5542C187.793 44.2951 187.466 44.0941 187.109 43.963C186.751 43.8369 186.372 43.7802 185.993 43.796H184.209V55.4389L185.993 55.5674C188.957 55.5674 188.957 52.7531 188.957 51.5451V47.3814C189.009 46.8834 188.956 46.38 188.803 45.9035Z" fill="#070707"/>
<path d="M200.902 81.1793V80.7295L200.915 73.9571L155.276 120.465V129.936L201.839 82.1431L200.902 81.1793Z" fill="#070707"/>
<path d="M198.9 64.1004C199.898 62.8428 200.588 61.3683 200.915 59.7954V47.844C200.461 46.2342 199.824 44.6819 199.016 43.2177C197.976 41.8255 196.808 40.5347 195.526 39.3624C194.518 38.3895 193.276 37.6944 191.921 37.3448C190.362 37.0325 188.765 36.9674 187.186 37.152C185.082 37.2677 181.925 37.3448 179.654 37.3962L176.46 37.4605H175.177V77.7995L178.833 81.809L188.315 82.6186V67.1204H190.047C194.089 67.3774 197.001 66.375 198.9 64.1004ZM187.661 62.1214L185.249 61.9543H184.248V77.5425C181.297 77.2726 178.641 77.067 176.177 76.9V38.4371C180.245 38.2958 183.735 38.1287 187.455 37.9231H188.61C189.747 37.8351 190.889 37.9825 191.967 38.3562C193.044 38.7298 194.033 39.3217 194.872 40.0949C196.604 41.8298 197.438 44.5285 197.438 48.1267V51.0182C197.438 58.7287 194.756 62.0443 188.456 62.0443L187.661 62.1214Z" fill="#070707"/>
<path d="M187.802 102.216H201.531L212.257 91.64H198.105L187.802 102.216Z" fill="#070707"/>
<path d="M239.83 88.106L240.061 86.8209L241.703 76.3731C241.819 75.5892 241.947 74.7924 242.075 73.9828L242.217 45.9935C242.101 45.1325 241.973 44.2586 241.844 43.4233L240.035 30.8294L239.599 30.2511L238.932 30.3796C235.84 30.9579 232.517 31.5105 229.104 32.0374L228.526 32.1402V85.7028L231.028 88.9541L231.516 89.0569C234.428 89.6352 237.572 90.342 241.434 91.1902L241.793 91.2673L240.023 88.3887L239.83 88.106ZM238.457 86.4482C235.493 85.78 232.286 85.4844 229.386 84.8932L229.489 32.9626C232.619 32.4743 235.66 31.9217 238.47 31.4077L238.457 86.4482Z" fill="#070707"/>
<path d="M243.41 65.4883L243.487 64.9486L243.551 64.5374L243.654 63.8691V63.7663L243.756 63.1238L243.833 62.584V62.2884L243.91 61.7359V61.119C243.91 60.7592 244.013 60.4251 244.051 60.1166V59.9239L243.897 58.8187V58.5874L243.82 58.0862C243.82 57.6878 243.718 57.2766 243.654 56.8011V56.4284C243.525 55.5931 243.397 54.6807 243.269 53.704V53.4727V66.6192V66.5036L243.384 65.7968L243.41 65.4883Z" fill="#070707"/>
<path d="M262.386 60.7206V60.5664C263.759 50.6841 265.209 39.915 266.659 28.5548L266.8 27.4624L264.003 24.6481L258.588 26.3187L253.815 27.4624L253.751 29.3258L252.879 28.709L251.929 27.9379L251.275 28.105C249.543 28.5162 246.887 29.0945 244.962 29.5057L242.242 30.084L241.652 30.1997L241.1 30.3153L241.19 30.8551L242.986 43.2434C243.936 49.9644 244.988 57.3794 245.36 60.0524V60.2066C244.873 63.5607 243.795 70.4873 242.794 76.5401L240.998 87.9646L243.205 91.5629L243.795 91.7042C246.759 92.3982 250.005 93.1949 253.418 94.0817L254.072 94.2616V93.9917L254.162 92.5395L255.06 93.6833C255.176 93.8246 255.727 94.3901 256.099 94.7627C257.113 95.0455 263.323 96.7675 266.364 97.6542L267.211 97.8984L267.082 96.8317C265.645 85.2531 264.067 73.1089 262.386 60.7206ZM254.534 90.3934C254.38 87.2578 254.188 83.878 254.008 80.8837C253.803 77.414 253.572 73.4688 253.379 69.4464V68.8938L251.647 68.7139V69.4079C251.506 73.6615 251.095 80.0484 250.775 85.2145V85.6643C250.698 86.9494 250.621 88.2345 250.544 89.2882C247.772 88.5686 244.975 87.8875 242.229 87.2321C243.615 78.5834 245.014 69.4978 246.412 60.2452V60.1166C245.052 50.1443 243.666 40.4033 242.319 31.1635C245.219 30.5852 248.157 29.8784 251.057 29.2487C251.249 33.6694 251.583 43.2048 251.698 47.6641V48.3323L253.495 48.191V47.6384C253.61 45.2481 253.905 41.4571 254.175 37.7946C254.444 34.1321 254.726 30.6109 254.842 28.3491C257.498 27.6809 260.192 26.9484 262.874 26.1645C261.475 36.9978 260.077 47.497 258.704 57.3922H258.973V57.4694H258.704C260.231 68.7268 261.783 80.601 263.31 92.7837C260.333 91.9355 257.408 91.1131 254.534 90.3934Z" fill="#070707"/>
<path d="M233.286 90.5348L231.234 90.1107L230.335 89.9179L227.769 89.3139C224.805 88.7357 221.649 88.1702 218.108 87.5662L217.389 87.4377L216.863 86.7438L216.594 87.0265L216.363 87.2707L212.257 91.6785H229.078L218.441 102.255H201.595L193.46 110.865L179.616 110.646L177.55 112.793L209.486 113.307H210.422L211.077 112.651L233.338 90.5348H233.286Z" fill="#070707"/>
<path d="M215.516 86.0113V83.1198L218.082 86.4225H218.364C221.906 87.0265 225.075 87.5919 228.064 88.1831L228.796 88.3244V87.7333L227.513 85.9984V64.2546C227.31 63.7586 227.056 63.2849 226.756 62.841L225.627 61.376L225.973 61.0419C226.61 60.3773 227.134 59.6134 227.526 58.7801V42.3695C227.244 41.5732 226.861 40.8171 226.384 40.1206C226.011 39.6194 225.293 38.7198 224.664 37.9488L223.497 36.5095C221.688 34.479 218.865 33.7851 214.579 34.2991C210.563 34.7746 206.971 35.1087 202.801 35.4557H202.198L202.108 80.691L205.803 84.5462L209.126 85.0217C211.012 85.2916 213.296 85.6257 214.951 85.8956L215.516 86.0113ZM211.77 61.3889V81.1665C208.857 80.7038 205.932 80.2797 203.058 79.8814C203.058 65.4755 203.058 50.864 203.058 36.4324C207.048 36.0983 211.038 35.7127 214.939 35.2758C218.185 34.8774 220.546 35.3786 222.149 36.7922C224.1 38.4885 225.024 41.5599 225.024 46.379V48.2295C225.024 53.2671 223.83 56.2871 221.303 57.7521L220.328 58.3175L221.303 58.8701C224.036 60.4122 224.818 62.9824 224.818 70.3331C224.818 71.7082 224.818 73.0704 224.818 74.4454C224.818 78.3007 224.818 81.5777 224.818 83.4411C221.957 82.8885 219.096 82.3745 216.299 81.899C215.991 80.6139 215.888 76.8357 215.901 67.3132C215.901 62.7511 215.606 61.5816 212.937 61.5045L211.77 61.3889Z" fill="#070707"/>
<path d="M141.984 80.948C146.205 80.858 150.606 80.8323 155.071 80.8709H155.34C159.536 80.8709 162.32 79.8428 164.091 77.6453C165.862 75.4478 166.529 72.5049 166.542 67.6858V53.1257C166.542 49.0134 165.746 46.0192 164.117 43.9759L163.424 43.0121C162.632 41.7421 161.64 40.6093 160.485 39.658C158.368 38.0516 155.417 37.242 151.337 37.2934C147.488 37.2934 143.549 37.2934 139.687 37.2934L139.469 53.9996L139.135 77.5425L139.469 77.928L141.984 80.948ZM140.598 38.3986C144.075 38.3986 147.616 38.3986 151.106 38.3986C155.507 38.3986 158.42 39.2082 160.242 40.9688C162.064 42.7293 162.885 45.6465 162.885 49.8488V64.4217C162.885 69.2665 162.076 72.2351 160.319 74.0342C158.728 75.6149 156.226 76.3474 152.62 76.3217C148.656 76.3217 144.627 76.3217 140.624 76.3217C140.615 63.7021 140.607 51.061 140.598 38.3986Z" fill="#070707"/>
<path d="M216.17 50.0801V46.2248C216.17 44.5413 215.939 43.6546 215.349 43.0763C215.022 42.8225 214.645 42.64 214.243 42.5404C213.84 42.4408 213.422 42.4264 213.014 42.498H211.808V43.1406C211.808 46.6874 211.808 50.2214 211.808 53.7297V54.4108H213.181C215.683 54.4108 216.17 52.8302 216.17 50.0801Z" fill="#070707"/>
<path d="M109.124 18.1969H104.133V20.3173H109.124V18.1969Z" fill="#070707"/>
<path d="M115.116 83.4925L113.949 82.2074L114.103 83.6981L112.383 83.8652L111.575 83.9423H111.434L110.587 84.0322L109.304 84.1736L153.172 128.946L154.211 130V120.465L117.811 83.1969L115.116 83.4925Z" fill="#070707"/>
<path d="M107.418 102.216H121.75L111.37 91.64H96.6916L107.418 102.216Z" fill="#070707"/>
<path d="M115.488 110.852L107.341 102.229H91.1873L80.4609 91.6785H96.7173L91.739 86.4096C90.3789 86.6024 88.9932 86.8209 87.5819 87.0393L86.1705 87.2578L85.4776 87.3735C82.193 87.926 78.9468 88.4915 75.8033 89.0826L74.8667 89.2626L98.6804 112.754L99.3476 113.397H100.284L132.117 112.908L129.961 110.724L115.488 110.852Z" fill="#070707"/>
<path d="M153.775 21.5253H148.425V23.2216H153.775V21.5253Z" fill="#070707"/>
<path d="M200.94 64.0362V62.9439C200.799 63.2137 200.658 63.4707 200.504 63.7278C200.3 64.0724 200.073 64.403 199.824 64.7173C197.681 67.2875 194.474 68.4569 189.983 68.2384H189.406V83.8009L178.294 82.8499L174.035 78.1594V36.3167H179.616C181.887 36.3167 185.018 36.1882 187.096 36.0726C188.786 35.8765 190.497 35.9502 192.164 36.291C193.701 36.6757 195.108 37.4604 196.244 38.5656C198.01 40.0737 199.499 41.8784 200.645 43.8988C200.774 44.1301 200.863 44.3743 200.966 44.6056V34.4019H202.634C206.74 34.055 210.332 33.7208 214.323 33.2453C218.967 32.6928 222.188 33.5409 224.202 35.8155L225.396 37.2934C226.024 38.0773 226.756 38.9769 227.128 39.4781C227.23 39.5978 227.32 39.7268 227.397 39.8636V31.1635L228.847 30.9322C232.299 30.4053 235.609 29.8399 238.701 29.2616L239.984 29.0174L240.241 29.3515L241.909 29.0045L242.666 28.8503H242.858L243.743 28.6576L264.773 7.22222H44.5864L67.8099 30.9322L69.4137 31.1635L70.0039 31.2535H70.3375L71.1073 31.3691L71.6077 31.4334L73.0961 31.639C77.3559 32.2944 80.3839 33.8236 82.3855 36.3296L84.8233 39.5166C85.6743 40.5089 86.359 41.633 86.8505 42.845C86.9532 41.7784 87.0558 40.7631 87.1456 39.825V38.9769C87.1456 38.5528 87.2354 38.1416 87.2739 37.6918V37.7046C87.3637 36.8565 87.4279 36.0983 87.4921 35.43L87.7358 33.5923L89.3782 33.7465C94.4078 34.222 100.079 34.659 105.776 35.0316H106.302L109.368 39.4009L109.561 41.123C110.108 46.4176 110.673 51.7935 111.254 57.2509V35.1087L112.422 35.1858L120.249 35.5714L122.969 35.687H124.534L125.253 36.5737V35.7641L126.407 35.8284C127.69 35.9055 130.526 35.9569 132.63 35.9954H137.455L138.622 37.3962V36.1754H139.726C143.575 36.1754 147.642 36.1754 151.517 36.1754C155.725 36.1754 158.895 37.0235 161.178 38.7456C162.411 39.7449 163.472 40.9385 164.322 42.2796C164.591 42.6651 164.797 42.9735 165.015 43.2434C166.798 45.4923 167.671 48.7179 167.671 53.0872V67.6858C167.671 72.7491 166.824 76.0261 164.976 78.3393C162.949 80.9095 159.844 82.0403 155.084 81.9761C150.632 81.9761 146.243 81.9761 142.035 82.0532H141.496L140.598 80.9609V82.1174H138.93C135.081 82.2331 131.309 82.4002 127.626 82.6186L124.547 82.7471L121.981 82.927H121.788L119.222 83.1327L154.763 119.424L200.953 72.3507L200.94 64.0362ZM222.855 14.7015H234.659V18.2997H230.451V26.293H227.064V18.2997H222.855V14.7015ZM210.178 16.9889C210.18 16.5893 210.267 16.1947 210.435 15.8323C210.59 15.5024 210.818 15.2122 211.102 14.9842C211.37 14.7872 211.694 14.6793 212.026 14.6758H220.135C220.464 14.6776 220.783 14.7858 221.046 14.9842C221.338 15.208 221.571 15.499 221.726 15.8323C221.914 16.1906 222.023 16.5849 222.047 16.9889V18.4282H218.608V17.6957H213.617V19.1736H220.186C220.51 19.1727 220.825 19.2763 221.085 19.4692C221.371 19.6839 221.601 19.9665 221.752 20.2916C221.919 20.632 222.011 21.0046 222.021 21.3839V23.9541C222.029 24.3587 221.941 24.7594 221.765 25.1236C221.618 25.4589 221.389 25.751 221.097 25.9717C220.834 26.1685 220.515 26.2765 220.186 26.2801H212.077C211.745 26.2783 211.421 26.1703 211.154 25.9717C210.837 25.7451 210.585 25.4394 210.422 25.085C210.254 24.7226 210.167 24.328 210.166 23.9284V22.4763H213.579V23.2859H218.608V21.808H212.193C211.824 21.8195 211.461 21.7162 211.154 21.5125C210.841 21.3145 210.588 21.0345 210.422 20.7028C210.245 20.3476 210.153 19.9561 210.153 19.5591L210.178 16.9889ZM204.495 14.7015H208.01V26.2673H204.495V14.7015ZM190.381 16.9889C190.371 16.5897 190.455 16.1937 190.625 15.8323C190.78 15.5024 191.008 15.2122 191.292 14.9842C191.56 14.7872 191.883 14.6793 192.216 14.6758H200.325C200.657 14.6793 200.98 14.7872 201.248 14.9842C201.54 15.2181 201.773 15.5174 201.928 15.858C202.092 16.2213 202.176 16.616 202.172 17.0146V18.4282H198.721V17.6957H193.742V19.1736H200.299C200.626 19.1726 200.945 19.2762 201.21 19.4692C201.493 19.6876 201.722 19.9692 201.877 20.2916C202.048 20.6441 202.135 21.0309 202.134 21.4225V23.9927C202.143 24.3919 202.06 24.7879 201.89 25.1493C201.735 25.483 201.507 25.7773 201.223 26.0103C200.955 26.2073 200.631 26.3151 200.299 26.3187H192.19C191.857 26.3151 191.534 26.2073 191.266 26.0103C190.976 25.7599 190.751 25.4423 190.612 25.085C190.448 24.7217 190.365 24.3271 190.368 23.9284V22.4763H193.781V23.2859H198.759V21.808H192.344C191.976 21.8178 191.613 21.7147 191.305 21.5125C190.992 21.3145 190.739 21.0345 190.573 20.7028C190.393 20.3492 190.305 19.9559 190.317 19.5591L190.381 16.9889ZM177.756 14.7015H188.392V17.76H181.143V19.1607H188.123V21.8466H181.13V23.2345H188.354V26.293H177.73L177.756 14.7015ZM85.6316 19.7133H82.2187V18.1712H77.2275V22.7333H82.2187V21.2169H85.6316V23.9798C85.6412 24.3791 85.5577 24.7751 85.3878 25.1364C85.2362 25.4684 85.0074 25.7592 84.7206 25.9846C84.455 26.1865 84.1303 26.2949 83.7968 26.293H75.6879C75.3544 26.2949 75.0297 26.1865 74.7641 25.9846C74.458 25.7586 74.215 25.4577 74.0584 25.1107C73.8944 24.7474 73.8112 24.3528 73.8146 23.9541V16.9889C73.8112 16.5903 73.8944 16.1956 74.0584 15.8323C74.2133 15.5024 74.4415 15.2122 74.7256 14.9842C74.9938 14.7872 75.3168 14.6793 75.6494 14.6758H83.7583C84.0909 14.6793 84.414 14.7872 84.6821 14.9842C84.9697 15.2088 85.1986 15.4998 85.3493 15.8323C85.5325 16.1904 85.6292 16.5866 85.6316 16.9889V19.7133ZM98.4622 17.7086H91.3027V19.1093H98.3083V21.7952H91.3027V23.1831H98.5264V26.2416H87.8898V14.6758H98.5264L98.4622 17.7086ZM112.473 26.2416H109.124V23.6714H104.133V26.2416H100.72V17.1431C100.721 16.7353 100.809 16.3323 100.977 15.9609C101.119 15.6124 101.349 15.3068 101.644 15.0741C101.913 14.8567 102.248 14.7387 102.594 14.74H110.703C111.037 14.7428 111.362 14.8557 111.626 15.0613C111.913 15.2816 112.142 15.5682 112.294 15.8966C112.464 16.2579 112.547 16.6539 112.537 17.0532L112.473 26.2416ZM126.587 23.967C126.59 24.3657 126.507 24.7603 126.343 25.1236C126.188 25.4605 125.955 25.7557 125.663 25.9846C125.4 26.1814 125.081 26.2893 124.752 26.293H116.63C116.302 26.2893 115.983 26.1814 115.719 25.9846C115.397 25.7473 115.145 25.4278 114.988 25.0593C114.818 24.698 114.735 24.302 114.744 23.9027V22.4763H118.157V23.2859H123.174V21.808H116.759C116.394 21.8194 116.035 21.716 115.732 21.5125C115.412 21.319 115.154 21.0382 114.988 20.7028C114.808 20.3492 114.72 19.9559 114.731 19.5591V16.9889C114.722 16.5897 114.805 16.1937 114.975 15.8323C115.13 15.5024 115.358 15.2122 115.642 14.9842C115.911 14.7872 116.234 14.6793 116.566 14.6758H124.675C125.008 14.6793 125.331 14.7872 125.599 14.9842C125.883 15.2122 126.111 15.5024 126.266 15.8323C126.436 16.1937 126.52 16.5897 126.51 16.9889V18.4282H123.174V17.6957H118.183V19.1736H124.752C125.076 19.1727 125.391 19.2763 125.65 19.4692C125.941 19.6835 126.174 19.9659 126.33 20.2916C126.501 20.6441 126.589 21.0309 126.587 21.4225V23.967ZM139.418 17.7086H132.194V19.1093H139.199V21.7952H132.194V23.1831H139.418V26.2416H128.781V14.6758H139.418V17.7086ZM158.304 21.551H156.765V23.9798C156.768 24.3785 156.685 24.7731 156.521 25.1364C156.369 25.4718 156.135 25.7634 155.841 25.9846C155.58 26.1864 155.259 26.295 154.93 26.293H146.782C146.453 26.297 146.131 26.1882 145.871 25.9846C145.58 25.7564 145.354 25.4548 145.217 25.1107C145.043 24.7505 144.955 24.3544 144.96 23.9541V21.7438C144.967 21.1873 145.193 20.6561 145.589 20.2659C145.375 20.0583 145.212 19.8029 145.114 19.5206C145.012 19.2228 144.96 18.9101 144.96 18.5953V16.9889C144.955 16.5886 145.043 16.1926 145.217 15.8323C145.363 15.497 145.593 15.2049 145.884 14.9842C146.148 14.8014 146.461 14.7028 146.782 14.7015H152.684V17.76H148.361V19.0451H153.711V17.6186H156.765V19.0579H158.304V21.551ZM161.627 86.9108L162.449 87.7333L158.048 92.1926L157.239 91.3701L161.627 86.9108ZM149.425 86.9108L153.878 91.3573L153.057 92.1797L148.604 87.7204L149.425 86.9108ZM143.729 92.6038L148.181 97.0631L147.36 97.8855L142.92 93.4263L143.729 92.6038ZM163.552 107.575C163.368 107.757 163.134 107.878 162.88 107.924C162.625 107.97 162.363 107.938 162.128 107.832C161.964 107.765 161.818 107.659 161.704 107.524L155.584 100.674L149.4 107.575C149.284 107.714 149.133 107.821 148.964 107.884C148.804 107.961 148.628 108.001 148.45 107.999C148.114 107.998 147.791 107.864 147.552 107.627C147.315 107.387 147.182 107.064 147.18 106.727C147.179 106.549 147.218 106.373 147.296 106.213C147.367 106.047 147.471 105.898 147.604 105.776L154.571 99.5433L150.118 94.5571C150.066 94.4962 150 94.4479 149.926 94.4158C149.85 94.3967 149.771 94.3967 149.695 94.4158C149.614 94.4258 149.535 94.452 149.464 94.4929C149.396 94.5348 149.339 94.592 149.297 94.6599C149.069 95.049 148.953 95.4939 148.964 95.945C148.964 96.1078 148.933 96.2692 148.874 96.4205L144.614 92.1412C144.76 92.0794 144.917 92.0488 145.076 92.0512C145.395 92.0473 145.709 91.9773 146 91.8456C146.292 91.716 146.557 91.533 146.782 91.3058L147.231 90.8561C147.454 90.6326 147.629 90.3658 147.745 90.0722C147.869 89.7845 147.931 89.4733 147.924 89.1597C147.928 88.9974 147.959 88.8368 148.014 88.6843L152.287 92.9636C152.134 93.0152 151.973 93.0412 151.812 93.0407C151.389 93.0507 150.974 93.1655 150.606 93.3748C150.53 93.4257 150.464 93.4912 150.413 93.5676C150.395 93.6523 150.395 93.74 150.413 93.8246C150.401 93.9013 150.401 93.9793 150.413 94.0559C150.441 94.1145 150.481 94.167 150.529 94.2102L155.597 98.7337L160.652 94.2102C160.705 94.1707 160.745 94.1172 160.768 94.0559C160.807 93.9848 160.829 93.9057 160.832 93.8246C160.832 93.7332 160.805 93.6438 160.755 93.5676C160.713 93.4888 160.651 93.4224 160.575 93.3748C160.203 93.1634 159.784 93.0486 159.356 93.0407C159.199 93.0412 159.043 93.0151 158.895 92.9636L163.154 88.6843C163.216 88.8351 163.246 88.9968 163.244 89.1597C163.244 89.4727 163.305 89.7826 163.424 90.0722C163.544 90.3666 163.723 90.6333 163.95 90.8561L164.399 91.3058C164.615 91.5376 164.877 91.7214 165.169 91.8456C165.459 91.9773 165.774 92.0473 166.092 92.0512C166.255 92.0488 166.417 92.0794 166.567 92.1412L162.333 96.382C162.279 96.2291 162.248 96.0687 162.243 95.9065C162.242 95.4828 162.132 95.0667 161.923 94.6985C161.877 94.6297 161.821 94.5689 161.756 94.5186C161.683 94.4815 161.605 94.4555 161.525 94.4415C161.445 94.4228 161.361 94.4228 161.281 94.4415C161.208 94.4691 161.142 94.513 161.089 94.57L156.598 99.5947L163.565 105.827C163.693 105.953 163.797 106.101 163.873 106.264C163.95 106.424 163.99 106.6 163.988 106.778C163.961 107.086 163.825 107.373 163.603 107.588L163.552 107.575ZM163.706 97.8727L162.885 97.0502L167.337 92.6038L168.158 93.4263L163.706 97.8727ZM163.59 26.2801V14.7143H173.701C174.032 14.7189 174.352 14.8318 174.612 15.0356C174.899 15.2559 175.128 15.5425 175.279 15.8709C175.447 16.2333 175.535 16.6279 175.536 17.0275V23.9927C175.535 24.3923 175.447 24.7869 175.279 25.1493C175.128 25.4813 174.899 25.7721 174.612 25.9974C174.35 26.1975 174.03 26.3059 173.701 26.3059L163.59 26.2801Z" fill="#070707"/>
<path d="M172.059 18.2997H167.068V22.7333H172.059V18.2997Z" fill="#070707"/>
</svg>
